<svg xmlns="http://www.w3.org/2000/svg" version="1.1" viewBox="151 181 206 125.45">
<path d="M0 0 C3.81936528 1.55603771 6.26044438 3.95604931 9 7 C9 7.66 9 8.32 9 9 C10.60681641 9.09087891 10.60681641 9.09087891 12.24609375 9.18359375 C13.64324391 9.26798537 15.04037857 9.35263406 16.4375 9.4375 C17.14455078 9.47681641 17.85160156 9.51613281 18.58007812 9.55664062 C23.88671875 9.88671875 23.88671875 9.88671875 25 11 C25.07319621 13.69654854 25.09242537 16.36691458 25.0625 19.0625 C25.05798828 19.82111328 25.05347656 20.57972656 25.04882812 21.36132812 C25.0370068 23.24091871 25.01907078 25.12046899 25 27 C24.01 27.33 23.02 27.66 22 28 C22 28.66 22 29.32 22 30 C22.9590625 29.319375 22.9590625 29.319375 23.9375 28.625 C29.05674044 25.90866834 34.23384536 25 40 25 C40 25.99 40 26.98 40 28 C39.4225 28.2475 38.845 28.495 38.25 28.75 C35.90550694 29.90996305 35.90550694 29.90996305 34.125 31.9375 C31.6485755 34.34108849 29.12517247 35.57946706 26 37 C26.99 37.495 26.99 37.495 28 38 C28 42.29 28 46.58 28 51 C27.01 51.33 26.02 51.66 25 52 C25.639375 52.78375 26.27875 53.5675 26.9375 54.375 C30.64793617 59.09737331 30.63306177 63.12659355 30 69 C28.75104013 72.6654257 26.76944783 75.27718538 23.9375 77.9375 C19.30269532 79.61391872 14.86479921 79.65006862 10 79 C4.85146319 76.4257316 1.817992 73.45397599 0 68 C-0.06802967 66.27204648 -0.08495645 64.54164635 -0.0625 62.8125 C-0.05347656 61.91144531 -0.04445312 61.01039063 -0.03515625 60.08203125 C-0.02355469 59.39496094 -0.01195312 58.70789063 0 58 C-1.83053284 61.88988228 -2.5660755 64.71399975 -2 69 C0.2341652 74.53645718 2.9892646 79.54362733 7 84 C2.55435877 84.42640253 0.61554425 83.41064126 -2.8125 80.625 C-3.60269531 79.99851562 -4.39289063 79.37203125 -5.20703125 78.7265625 C-6.09455078 77.87191406 -6.09455078 77.87191406 -7 77 C-7 76.34 -7 75.68 -7 75 C-7.66 75 -8.32 75 -9 75 C-11.035282 69.14856425 -11.16973678 64.19539258 -11 58 C-14.96 58 -18.92 58 -23 58 C-22.96777344 57.01 -22.93554688 56.02 -22.90234375 55 C-22.79790761 47.16129038 -22.79790761 47.16129038 -26.0703125 40.22265625 C-28.29889282 38.2909871 -30.50876456 36.57526605 -33 35 C-31.63760782 32.15776803 -30.44766831 30.03972359 -28 28 C-27.34 28 -26.68 28 -26 28 C-26 27.34 -26 26.68 -26 26 C-25.34 25.67 -24.68 25.34 -24 25 C-23.718235 22.67616498 -23.54828316 20.33823176 -23.4375 18 C-23.09650053 11.09650053 -23.09650053 11.09650053 -22 10 C-19.47403741 9.76346477 -16.96892793 9.57826308 -14.4375 9.4375 C-13.72658203 9.39431641 -13.01566406 9.35113281 -12.28320312 9.30664062 C-10.52238088 9.20028223 -8.7612168 9.09961154 -7 9 C-7 8.34 -7 7.68 -7 7 C-6.34 7 -5.68 7 -5 7 C-5 6.34 -5 5.68 -5 5 C-4.34 5 -3.68 5 -3 5 C-2.690625 4.360625 -2.38125 3.72125 -2.0625 3.0625 C-1 1 -1 1 0 0 Z M0 10 C-0.99 11.485 -0.99 11.485 -2 13 C-1.34 13.66 -0.68 14.32 0 15 C0.99 15 1.98 15 3 15 C3.33 14.01 3.66 13.02 4 12 C2.68 11.34 1.36 10.68 0 10 Z M-16 17 C-16 18.65 -16 20.3 -16 22 C-14.35 22 -12.7 22 -11 22 C-11 20.35 -11 18.7 -11 17 C-12.65 17 -14.3 17 -16 17 Z M13 17 C13 18.65 13 20.3 13 22 C14.65 22 16.3 22 18 22 C18 20.35 18 18.7 18 17 C16.35 17 14.7 17 13 17 Z M-5 28 C-6.87068483 32.05315047 -7.28641478 34.09021188 -5.9375 38.375 C-4.23731198 41.21065961 -4.23731198 41.21065961 -1.3125 41.875 C-0.549375 41.91625 0.21375 41.9575 1 42 C1 42.66 1 43.32 1 44 C5.67105792 42.44298069 9.08705685 39.91552627 13 37 C12.01 36.67 11.02 36.34 10 36 C9.4453125 34.22265625 9.4453125 34.22265625 9.125 32.0625 C8.71438791 29.9053127 8.71438791 29.9053127 8 28 C3.58658775 25.284054 -0.55659063 25.37952781 -5 28 Z M20 30 C17.88316159 30.89163577 17.88316159 30.89163577 16 32 C16.33 32.66 16.66 33.32 17 34 C18.65 33.01 20.3 32.02 22 31 C21.34 30.67 20.68 30.34 20 30 Z M-22 32 C-22 33.32 -22 34.64 -22 36 C-20.68 36 -19.36 36 -18 36 C-17.67 35.34 -17.34 34.68 -17 34 C-17.33 33.34 -17.66 32.68 -18 32 C-19.32 32 -20.64 32 -22 32 Z M14 34 C13.67 34.66 13.34 35.32 13 36 C13.99 35.67 14.98 35.34 16 35 C15.34 34.67 14.68 34.34 14 34 Z M18 41 C18 41.66 18 42.32 18 43 C17.01 43.495 17.01 43.495 16 44 C16.66 44 17.32 44 18 44 C18 44.99 18 45.98 18 47 C18.99 46.67 19.98 46.34 21 46 C21 44.35 21 42.7 21 41 C20.01 41 19.02 41 18 41 Z M-16 46 C-16 47.98 -16 49.96 -16 52 C-14.35 52 -12.7 52 -11 52 C-11 50.02 -11 48.04 -11 46 C-12.65 46 -14.3 46 -16 46 Z M-5 47 C-4.67 47.99 -4.34 48.98 -4 50 C-3.34 49.01 -2.68 48.02 -2 47 C-2.99 47 -3.98 47 -5 47 Z M12 46 C10.68 47.32 9.36 48.64 8 50 C9.65 50 11.3 50 13 50 C12.67 48.68 12.34 47.36 12 46 Z M19 49 C20 51 20 51 20 51 Z M-6 50 C-5 52 -5 52 -5 52 Z M-8 52 C-8 55 -8 55 -8 55 Z M18 53 C18.33 53.99 18.66 54.98 19 56 C19.33 55.01 19.66 54.02 20 53 C19.34 53 18.68 53 18 53 Z M2 54 C2 57 2 57 2 57 Z M-10 55 C-9 57 -9 57 -9 57 Z M12 56 C8.09404238 59.31380367 8.09404238 59.31380367 6.375 64 C7.23063217 68.10703441 8.61878009 69.55401113 12 72 C15.46144178 72.35201103 17.86128812 72.56935594 21 71 C21 70.34 21 69.68 21 69 C21.66 69 22.32 69 23 69 C24.14844551 63.91587473 24.14844551 63.91587473 23 59 C21.68883691 58.2907232 20.3558819 57.61952119 19 57 C19.01160156 57.71027344 19.02320313 58.42054688 19.03515625 59.15234375 C19.04869141 60.53099609 19.04869141 60.53099609 19.0625 61.9375 C19.07410156 62.85402344 19.08570313 63.77054688 19.09765625 64.71484375 C19 67 19 67 18 68 C16.33382885 68.04063832 14.66611905 68.042721 13 68 C11.875 65.1875 11.875 65.1875 11 62 C11.66 61.01 12.32 60.02 13 59 C12.67 58.01 12.34 57.02 12 56 Z " fill="#C77454" transform="translate(251,181)"/>
<path d="M0 0 C3.81936528 1.55603771 6.26044438 3.95604931 9 7 C9 7.66 9 8.32 9 9 C10.60681641 9.09087891 10.60681641 9.09087891 12.24609375 9.18359375 C13.64324391 9.26798537 15.04037857 9.35263406 16.4375 9.4375 C17.14455078 9.47681641 17.85160156 9.51613281 18.58007812 9.55664062 C23.88671875 9.88671875 23.88671875 9.88671875 25 11 C25.07319621 13.69654854 25.09242537 16.36691458 25.0625 19.0625 C25.05798828 19.82111328 25.05347656 20.57972656 25.04882812 21.36132812 C25.0370068 23.24091871 25.01907078 25.12046899 25 27 C24.01 27.33 23.02 27.66 22 28 C22 28.66 22 29.32 22 30 C20.02 30.66 18.04 31.32 16 32 C16 32.66 16 33.32 16 34 C13 36 13 36 10 36 C7.8480563 32.77208445 7.79913557 31.71599191 8 28 C1.474566 26.99607024 1.474566 26.99607024 -5 28 C-5.33 29.65 -5.66 31.3 -6 33 C-6.66 33 -7.32 33 -8 33 C-8.33 35.31 -8.66 37.62 -9 40 C-10.98 40.495 -10.98 40.495 -13 41 C-12.67 41.99 -12.34 42.98 -12 44 C-13.65 44 -15.3 44 -17 44 C-17 46.97 -17 49.94 -17 53 C-15.35 53.33 -13.7 53.66 -12 54 C-11.67 55.32 -11.34 56.64 -11 58 C-14.96 58 -18.92 58 -23 58 C-22.96777344 57.01 -22.93554688 56.02 -22.90234375 55 C-22.79790761 47.16129038 -22.79790761 47.16129038 -26.0703125 40.22265625 C-28.29889282 38.2909871 -30.50876456 36.57526605 -33 35 C-31.63760782 32.15776803 -30.44766831 30.03972359 -28 28 C-27.34 28 -26.68 28 -26 28 C-26 27.34 -26 26.68 -26 26 C-25.34 25.67 -24.68 25.34 -24 25 C-23.718235 22.67616498 -23.54828316 20.33823176 -23.4375 18 C-23.09650053 11.09650053 -23.09650053 11.09650053 -22 10 C-19.47403741 9.76346477 -16.96892793 9.57826308 -14.4375 9.4375 C-13.72658203 9.39431641 -13.01566406 9.35113281 -12.28320312 9.30664062 C-10.52238088 9.20028223 -8.7612168 9.09961154 -7 9 C-7 8.34 -7 7.68 -7 7 C-6.34 7 -5.68 7 -5 7 C-5 6.34 -5 5.68 -5 5 C-4.34 5 -3.68 5 -3 5 C-2.690625 4.360625 -2.38125 3.72125 -2.0625 3.0625 C-1 1 -1 1 0 0 Z M0 10 C-0.99 11.485 -0.99 11.485 -2 13 C-1.34 13.66 -0.68 14.32 0 15 C0.99 15 1.98 15 3 15 C3.33 14.01 3.66 13.02 4 12 C2.68 11.34 1.36 10.68 0 10 Z M-16 17 C-16 18.65 -16 20.3 -16 22 C-14.35 22 -12.7 22 -11 22 C-11 20.35 -11 18.7 -11 17 C-12.65 17 -14.3 17 -16 17 Z M13 17 C13 18.65 13 20.3 13 22 C14.65 22 16.3 22 18 22 C18 20.35 18 18.7 18 17 C16.35 17 14.7 17 13 17 Z M-22 32 C-22 33.32 -22 34.64 -22 36 C-20.68 36 -19.36 36 -18 36 C-17.67 35.34 -17.34 34.68 -17 34 C-17.33 33.34 -17.66 32.68 -18 32 C-19.32 32 -20.64 32 -22 32 Z " fill="#C55C33" transform="translate(251,181)"/>
<path d="M0 0 C1.97786804 1.56399697 2.87416779 2.74833559 4 5 C4.07194869 7.88370333 4.09291708 10.74239664 4.0625 13.625 C4.05798828 14.42679687 4.05347656 15.22859375 4.04882812 16.0546875 C4.03703168 18.03649006 4.01909605 20.01825433 4 22 C4.61875 22.144375 5.2375 22.28875 5.875 22.4375 C8 23 8 23 10 24 C9.85856168 21.2705414 9.71200471 18.54151877 9.5625 15.8125 C9.52318359 15.04357422 9.48386719 14.27464844 9.44335938 13.48242188 C9.22492966 9.56748925 8.91307892 5.82879312 8 2 C11.8384848 0.57172659 14.90564735 -0.22131636 19 0 C20.64600021 0 22.29258261 -0.01061792 23.9375 -0.0703125 C24.618125 -0.08835937 25.29875 -0.10640625 26 -0.125 C27.0209375 -0.15980469 27.0209375 -0.15980469 28.0625 -0.1953125 C30 0 30 0 33 2 C33.95478711 4.67130932 34.16685904 7.28934186 34.31640625 10.109375 C34.35830078 10.86347656 34.40019531 11.61757813 34.44335938 12.39453125 C34.48267578 13.17183594 34.52199219 13.94914062 34.5625 14.75 C34.60568359 15.54277344 34.64886719 16.33554687 34.69335938 17.15234375 C34.79902991 19.10137815 34.89997966 21.05066748 35 23 C35.66 23.33 36.32 23.66 37 24 C37 24.99 37 25.98 37 27 C30.565 27.495 30.565 27.495 24 28 C23.505 26.02 23.505 26.02 23 24 C23.66 24 24.32 24 25 24 C24.67 18.39 24.34 12.78 24 7 C22.68 7 21.36 7 20 7 C19.94592433 9.58361518 19.906293 12.16609255 19.875 14.75 C19.85824219 15.47960937 19.84148437 16.20921875 19.82421875 16.9609375 C19.78927761 20.8044624 19.82500316 23.74606772 22 27 C18.31991613 27.90341409 15.3747246 27.97274465 11.625 27.5 C8.25793335 27.13243612 5.33334973 26.94547569 2 27.5625 C-1 28 -1 28 -4 26 C-4.515625 26.350625 -5.03125 26.70125 -5.5625 27.0625 C-9.05826706 28.40702579 -11.41014435 27.91378144 -15 27 C-17.5881216 24.74582958 -17.94242643 23.39479021 -18.4375 20 C-17.89328223 16.26822104 -16.97723373 15.25304174 -14 13 C-10.6011762 11.3005881 -8.89635934 11 -5 11 C-5.33 9.02 -5.66 7.04 -6 5 C-6.99 5 -7.98 5 -9 5 C-9.33 6.32 -9.66 7.64 -10 9 C-11.65614657 9.38218767 -13.32457024 9.71395102 -15 10 C-16 9 -16 9 -16.375 6.6875 C-16 4 -16 4 -14.1875 1.6875 C-9.62216184 -0.72944373 -5.07552178 -0.87210978 0 0 Z M-7 15 C-7.66 15.66 -8.32 16.32 -9 17 C-8.67958603 19.60280568 -8.67958603 19.60280568 -8 22 C-7.01 22 -6.02 22 -5 22 C-5 19.69 -5 17.38 -5 15 C-5.66 15 -6.32 15 -7 15 Z " fill="#C7653F" transform="translate(195,278)"/>
<path d="M0 0 C1.64600021 0 3.29258261 -0.01061792 4.9375 -0.0703125 C5.618125 -0.08835937 6.29875 -0.10640625 7 -0.125 C8.0209375 -0.15980469 8.0209375 -0.15980469 9.0625 -0.1953125 C11 0 11 0 14 2 C15.46197773 6.43605815 15.11286017 11.19098622 15.0625 15.8125 C15.05798828 16.60076172 15.05347656 17.38902344 15.04882812 18.20117188 C15.03711312 20.13414761 15.01917998 22.06708393 15 24 C16.32 24 17.64 24 19 24 C19 23.01 19 22.02 19 21 C20.98 20.67 22.96 20.34 25 20 C25.625 22.875 25.625 22.875 26 26 C25.34 26.66 24.68 27.32 24 28 C21.99548879 27.69496569 19.99551782 27.35919321 18 27 C16.66443427 27.32427316 15.33127061 27.65852167 14 28 C12.41788427 28.06548492 10.83329919 28.08578381 9.25 28.0625 C8.45078125 28.05347656 7.6515625 28.04445313 6.828125 28.03515625 C6.22484375 28.02355469 5.6215625 28.01195312 5 28 C4.67 26.68 4.34 25.36 4 24 C4.66 24 5.32 24 6 24 C5.67 18.39 5.34 12.78 5 7 C3.35 7 1.7 7 0 7 C0.11418667 9.58422459 0.24092362 12.16679513 0.375 14.75 C0.4059375 15.47960937 0.436875 16.20921875 0.46875 16.9609375 C0.6748494 20.73942656 0.91512843 23.77946668 3 27 C2 28 2 28 -0.43359375 28.1328125 C-1.92052734 28.12894531 -1.92052734 28.12894531 -3.4375 28.125 C-4.92056641 28.12886719 -4.92056641 28.12886719 -6.43359375 28.1328125 C-9 28 -9 28 -11 27 C-11 26.01 -11 25.02 -11 24 C-10.34 24 -9.68 24 -9 24 C-9 18.06 -9 12.12 -9 6 C-9.66 6 -10.32 6 -11 6 C-10.8125 4.125 -10.8125 4.125 -10 2 C-6.60557731 0.11420962 -3.83263473 -0.20171762 0 0 Z " fill="#C55D35" transform="translate(298,278)"/>
<path d="M0 0 C8.91 0 17.82 0 27 0 C27 3.63 27 7.26 27 11 C26.01 11 25.02 11 24 11 C23.34 9.02 22.68 7.04 22 5 C19.03 5 16.06 5 13 5 C13 8.63 13 12.26 13 16 C18.02137798 14.9957244 18.86243419 14.60239038 22 11 C23 12 23 12 23.09765625 14.94140625 C23.08605469 16.13636719 23.07445312 17.33132813 23.0625 18.5625 C23.05347656 19.76003906 23.04445312 20.95757812 23.03515625 22.19140625 C23.02355469 23.11824219 23.01195312 24.04507812 23 25 C21.68 24.67 20.36 24.34 19 24 C19 23.01 19 22.02 19 21 C17.02 21 15.04 21 13 21 C13 24.96 13 28.92 13 33 C14.65 33.33 16.3 33.66 18 34 C18 34.99 18 35.98 18 37 C12.06 37 6.12 37 0 37 C0 36.01 0 35.02 0 34 C0.99 33.505 0.99 33.505 2 33 C2.33 23.43 2.66 13.86 3 4 C2.01 3.67 1.02 3.34 0 3 C0 2.01 0 1.02 0 0 Z " fill="#C36037" transform="translate(151,268)"/>
<path d="M0 0 C1.64620877 0 3.29372486 -0.01598905 4.9375 -0.10546875 C10.51673907 -0.3273703 10.51673907 -0.3273703 12.9375 1.3125 C14.80729555 4.28217529 15.12186677 6.81678607 15.09765625 10.23046875 C15.09443359 11.03291016 15.09121094 11.83535156 15.08789062 12.66210938 C15.07951172 13.49548828 15.07113281 14.32886719 15.0625 15.1875 C15.05798828 16.03248047 15.05347656 16.87746094 15.04882812 17.74804688 C15.03705403 19.83206155 15.0191189 21.91603977 15 24 C15.99 24.33 16.98 24.66 18 25 C18 25.66 18 26.32 18 27 C11.565 27.495 11.565 27.495 5 28 C4.67 26.68 4.34 25.36 4 24 C4.66 24 5.32 24 6 24 C6 18.39 6 12.78 6 7 C4.35 7 2.7 7 1 7 C0.67 12.61 0.34 18.22 0 24 C0.66 24 1.32 24 2 24 C1.67 25.32 1.34 26.64 1 28 C-2.63 28 -6.26 28 -10 28 C-10.33 26.68 -10.66 25.36 -11 24 C-10.34 24 -9.68 24 -9 24 C-9 18.06 -9 12.12 -9 6 C-9.66 6 -10.32 6 -11 6 C-11 4.68 -11 3.36 -11 2 C-7.1615152 0.57172659 -4.09435265 -0.22131636 0 0 Z " fill="#C75D32" transform="translate(244,278)"/>
<path d="M0 0 C0.99 0.33 1.98 0.66 3 1 C3 1.99 3 2.98 3 4 C7.30031962 5.17281444 10.62908604 4.66674959 15 4 C17.67397837 3.91555858 20.32369261 3.95304724 23 4 C23 4.66 23 5.32 23 6 C23.66 6 24.32 6 25 6 C25 10.62 25 15.24 25 20 C25.66 20 26.32 20 27 20 C27 20.99 27 21.98 27 23 C23.7 23 20.4 23 17 23 C17.33 18.05 17.66 13.1 18 8 C17.01 8.495 17.01 8.495 16 9 C16 13.62 16 18.24 16 23 C12 23 8 23 4 23 C3.175 23.061875 2.35 23.12375 1.5 23.1875 C-1 23 -1 23 -2.64453125 21.875 C-4.59902925 19.17137164 -4.29367293 17.10386079 -4.1875 13.8125 C-4.16042969 12.72582031 -4.13335937 11.63914062 -4.10546875 10.51953125 C-4.07066406 9.68808594 -4.03585937 8.85664063 -4 8 C-4.66 8 -5.32 8 -6 8 C-5.66354211 4.85972637 -4.94763914 3.94901705 -2.625 1.6875 C-1.75875 1.130625 -0.8925 0.57375 0 0 Z M6 7 C5.01 7.33 4.02 7.66 3 8 C3 10.97 3 13.94 3 17 C5.475 17.495 5.475 17.495 8 18 C9.08719244 14.73842267 9.29071481 12.41589896 9 9 C8.01 8.34 7.02 7.68 6 7 Z " fill="#83A9B9" transform="translate(330,283)"/>
<path d="M0 0 C2.87029869 1.79393668 4.49131638 2.98263276 6 6 C6.125 9.5625 6.125 9.5625 6 13 C5 14 5 14 2.05859375 14.09765625 C0.26615234 14.08025391 0.26615234 14.08025391 -1.5625 14.0625 C-3.35880859 14.04896484 -3.35880859 14.04896484 -5.19140625 14.03515625 C-6.11824219 14.02355469 -7.04507812 14.01195312 -8 14 C-6.91215032 17.24983135 -6.91215032 17.24983135 -5 20 C-1.47362528 20.15672777 1.61905851 20.04028969 5 19 C5.33 20.32 5.66 21.64 6 23 C1.45152158 26.71060082 -0.86687849 28.36898177 -6.8984375 28.28125 C-10.37850484 27.81551608 -12.40913197 26.28243136 -15 24 C-17.8362598 19.61668941 -17.66314157 14.0463456 -17 9 C-13.07049081 1.28132123 -8.52810926 -1.41375073 0 0 Z M-6 4 C-6.66 4.66 -7.32 5.32 -8 6 C-8 6.99 -8 7.98 -8 9 C-6.02 9 -4.04 9 -2 9 C-2.33 7.35 -2.66 5.7 -3 4 C-3.99 4 -4.98 4 -6 4 Z " fill="#CF8266" transform="translate(279,278)"/>
<path d="M0 0 C3.81936528 1.55603771 6.26044438 3.95604931 9 7 C9 7.66 9 8.32 9 9 C10.60681641 9.09087891 10.60681641 9.09087891 12.24609375 9.18359375 C13.64324391 9.26798537 15.04037857 9.35263406 16.4375 9.4375 C17.14455078 9.47681641 17.85160156 9.51613281 18.58007812 9.55664062 C23.88671875 9.88671875 23.88671875 9.88671875 25 11 C25.07319621 13.69654854 25.09242537 16.36691458 25.0625 19.0625 C25.05798828 19.82111328 25.05347656 20.57972656 25.04882812 21.36132812 C25.0370068 23.24091871 25.01907078 25.12046899 25 27 C24.01 27.33 23.02 27.66 22 28 C22 28.66 22 29.32 22 30 C20.02 30.66 18.04 31.32 16 32 C16 32.66 16 33.32 16 34 C13 36 13 36 10 36 C7.8480563 32.77208445 7.79913557 31.71599191 8 28 C7.236875 27.87625 6.47375 27.7525 5.6875 27.625 C3 27 3 27 0 25 C2.97 25.33 5.94 25.66 9 26 C9 26.99 9 27.98 9 29 C12.11332248 28.33131686 12.11332248 28.33131686 13.1875 25.9375 C13.455625 25.298125 13.72375 24.65875 14 24 C13.34 24 12.68 24 12 24 C11.95758277 21.66705225 11.95907063 19.33297433 12 17 C13 16 13 16 16.0625 15.9375 C17.5165625 15.9684375 17.5165625 15.9684375 19 16 C19.66 18.97 20.32 21.94 21 25 C21.66 25 22.32 25 23 25 C23 20.71 23 16.42 23 12 C14.585 12.495 14.585 12.495 6 13 C6.66 13.66 7.32 14.32 8 15 C8.125 18.625 8.125 18.625 8 22 C7.34 22 6.68 22 6 22 C5.67 20.68 5.34 19.36 5 18 C3.58566794 17.7763663 2.16832382 17.57173524 0.75 17.375 C-0.03890625 17.25898438 -0.8278125 17.14296875 -1.640625 17.0234375 C-4.37077368 16.99631682 -5.75079804 17.47375581 -8 19 C-8.81171228 21.55519921 -8.81171228 21.55519921 -9 24 C-15.875 23.125 -15.875 23.125 -17 22 C-17.04092937 19.66702567 -17.04241723 17.33294775 -17 15 C-15.58456585 14.80341192 -14.16755969 14.61812454 -12.75 14.4375 C-11.96109375 14.33308594 -11.1721875 14.22867188 -10.359375 14.12109375 C-7.99467126 13.99972651 -6.2488963 14.30366743 -4 15 C-3.7834375 14.1028125 -3.7834375 14.1028125 -3.5625 13.1875 C-3.1127561 11.43849596 -2.57107659 9.71322977 -2 8 C0.97 8.495 0.97 8.495 4 9 C4 9.99 4 10.98 4 12 C4.66 10.02 5.32 8.04 6 6 C2.69432511 5.14612895 2.69432511 5.14612895 -1 5 C-3.33454661 6.83358335 -3.33454661 6.83358335 -5 9 C-5.66 9 -6.32 9 -7 9 C-7 8.34 -7 7.68 -7 7 C-6.34 7 -5.68 7 -5 7 C-5 6.34 -5 5.68 -5 5 C-4.34 5 -3.68 5 -3 5 C-2.690625 4.360625 -2.38125 3.72125 -2.0625 3.0625 C-1 1 -1 1 0 0 Z M0 10 C-0.99 11.485 -0.99 11.485 -2 13 C-1.34 13.66 -0.68 14.32 0 15 C0.99 15 1.98 15 3 15 C3.33 14.01 3.66 13.02 4 12 C2.68 11.34 1.36 10.68 0 10 Z M-16 17 C-16 18.65 -16 20.3 -16 22 C-14.35 22 -12.7 22 -11 22 C-11 20.35 -11 18.7 -11 17 C-12.65 17 -14.3 17 -16 17 Z M13 17 C13 18.65 13 20.3 13 22 C14.65 22 16.3 22 18 22 C18 20.35 18 18.7 18 17 C16.35 17 14.7 17 13 17 Z " fill="#CB7B5C" transform="translate(251,181)"/>
<path d="M0 0 C0.66 0.33 1.32 0.66 2 1 C2.103125 2.2375 2.20625 3.475 2.3125 4.75 C2.67044963 8.12322027 3.05495261 9.07758015 5.125 12 C9.48148527 15.03059845 12.88967909 14.35920356 17.9375 13.5 C18.618125 13.335 19.29875 13.17 20 13 C21.00392976 6.474566 21.00392976 6.474566 20 0 C21.66666667 0 23.33333333 0 25 0 C26.85994341 3.71988682 26.4375354 7.94064381 26 12 C24.75104013 15.6654257 22.76944783 18.27718538 19.9375 20.9375 C15.30269532 22.61391872 10.86479921 22.65006862 6 22 C0.85146319 19.4257316 -2.182008 16.45397599 -4 11 C-4.33345726 8.28860984 -4.43357964 5.70283412 -4 3 C-2 1 -2 1 0 0 Z " fill="#C47960" transform="translate(255,238)"/>
<path d="M0 0 C0 0.99 0 1.98 0 3 C-4.62 3 -9.24 3 -14 3 C-13.835 4.4025 -13.67 5.805 -13.5 7.25 C-13.14950715 10.22918921 -13 12.98146205 -13 16 C-12.49334721 20.15455291 -12.13563358 20.86436642 -9 24 C-9.99 27.3 -10.98 30.6 -12 34 C-12.99 34 -13.98 34 -15 34 C-15 38.95 -15 43.9 -15 49 C-15.33 49 -15.66 49 -16 49 C-15.96777344 48.01 -15.93554688 47.02 -15.90234375 46 C-15.79790761 38.16129038 -15.79790761 38.16129038 -19.0703125 31.22265625 C-21.29889282 29.2909871 -23.50876456 27.57526605 -26 26 C-24.63760782 23.15776803 -23.44766831 21.03972359 -21 19 C-20.34 19 -19.68 19 -19 19 C-19 18.34 -19 17.68 -19 17 C-18.34 16.67 -17.68 16.34 -17 16 C-16.718235 13.67616498 -16.54828316 11.33823176 -16.4375 9 C-16.09650053 2.09650053 -16.09650053 2.09650053 -15 1 C-12.8589527 0.76404785 -10.71139964 0.58578114 -8.5625 0.4375 C-7.38816406 0.35371094 -6.21382812 0.26992187 -5.00390625 0.18359375 C-3.3379239 0.08177168 -1.66909105 0 0 0 Z M-15 23 C-15 24.32 -15 25.64 -15 27 C-13.68 27 -12.36 27 -11 27 C-10.67 26.34 -10.34 25.68 -10 25 C-10.33 24.34 -10.66 23.68 -11 23 C-12.32 23 -13.64 23 -15 23 Z " fill="#C95C32" transform="translate(244,190)"/>
<path d="M0 0 C0.99 0.33 1.98 0.66 3 1 C3 1.99 3 2.98 3 4 C7.25566547 5.16063604 10.6835078 4.76173392 15 4 C15.33 4.66 15.66 5.32 16 6 C13.525 5.505 13.525 5.505 11 5 C10.67 6.98 10.34 8.96 10 11 C9.401875 10.505 8.80375 10.01 8.1875 9.5 C6.02970006 7.71723582 6.02970006 7.71723582 3 8 C3 10.97 3 13.94 3 17 C4.98 17 6.96 17 9 17 C8.67 18.65 8.34 20.3 8 22 C10.31 22 12.62 22 15 22 C15.33 21.34 15.66 20.68 16 20 C16 20.99 16 21.98 16 23 C12 23 8 23 4 23 C3.175 23.061875 2.35 23.12375 1.5 23.1875 C-1 23 -1 23 -2.64453125 21.875 C-4.59902925 19.17137164 -4.29367293 17.10386079 -4.1875 13.8125 C-4.16042969 12.72582031 -4.13335937 11.63914062 -4.10546875 10.51953125 C-4.07066406 9.68808594 -4.03585937 8.85664063 -4 8 C-4.66 8 -5.32 8 -6 8 C-5.66354211 4.85972637 -4.94763914 3.94901705 -2.625 1.6875 C-1.75875 1.130625 -0.8925 0.57375 0 0 Z " fill="#5793A8" transform="translate(330,283)"/>
<path d="M0 0 C3.875 2.625 3.875 2.625 5 6 C5.08021999 7.40824893 5.10765977 8.81997231 5.09765625 10.23046875 C5.09443359 11.03291016 5.09121094 11.83535156 5.08789062 12.66210938 C5.07532227 13.91217773 5.07532227 13.91217773 5.0625 15.1875 C5.05798828 16.03248047 5.05347656 16.87746094 5.04882812 17.74804688 C5.03705403 19.83206155 5.0191189 21.91603977 5 24 C5.99 24.33 6.98 24.66 8 25 C8 25.66 8 26.32 8 27 C1.565 27.495 1.565 27.495 -5 28 C-5.33 26.68 -5.66 25.36 -6 24 C-5.34 24 -4.68 24 -4 24 C-4.03480469 22.79601562 -4.06960937 21.59203125 -4.10546875 20.3515625 C-4.1336028 18.77605558 -4.16090337 17.20053362 -4.1875 15.625 C-4.21263672 14.8309375 -4.23777344 14.036875 -4.26367188 13.21875 C-4.29004405 11.14413852 -4.15486462 9.06899135 -4 7 C-3.01 6.34 -2.02 5.68 -1 5 C-0.34 5.33 0.32 5.66 1 6 C0.67 4.02 0.34 2.04 0 0 Z " fill="#CA7453" transform="translate(254,278)"/>
<path d="M0 0 C1.89213369 2.38573379 3.02391783 4.07175348 4 7 C6.50447516 8.21869929 6.50447516 8.21869929 9 9 C9 9.66 9 10.32 9 11 C9.66 11.33 10.32 11.66 11 12 C8.09399739 13.25664978 6.20395416 14 3 14 C2.67 16.64 2.34 19.28 2 22 C1.34 21.67 0.68 21.34 0 21 C-0.99 21.99 -1.98 22.98 -3 24 C-3.433125 23.525625 -3.86625 23.05125 -4.3125 22.5625 C-6.02309613 20.76313043 -6.02309613 20.76313043 -9 20 C-9 17.03 -9 14.06 -9 11 C-7.68 10.67 -6.36 10.34 -5 10 C-5.33 9.01 -5.66 8.02 -6 7 C-4.35 7 -2.7 7 -1 7 C-0.67 4.69 -0.34 2.38 0 0 Z M-8 13 C-8 14.98 -8 16.96 -8 19 C-6.35 19 -4.7 19 -3 19 C-3 17.02 -3 15.04 -3 13 C-4.65 13 -6.3 13 -8 13 Z " fill="#C75F36" transform="translate(243,214)"/>
<path d="M0 0 C0.99 0.33 1.98 0.66 3 1 C3 2.65 3 4.3 3 6 C5.64 6 8.28 6 11 6 C11.33 4.68 11.66 3.36 12 2 C12.99 2 13.98 2 15 2 C15 4.31 15 6.62 15 9 C10.71 9 6.42 9 2 9 C2.350625 10.60875 2.70125 12.2175 3.0625 13.875 C4.125 18.75 4.125 18.75 3 21 C0 21 0 21 -2.1875 19.0625 C-4.63093327 14.93394034 -4.83128592 11.69196958 -4 7 C-2.89436028 4.39316841 -1.60618198 2.35907979 0 0 Z " fill="#CA5C32" transform="translate(268,282)"/>
<path d="M0 0 C0 0.66 0 1.32 0 2 C-0.99 2.495 -0.99 2.495 -2 3 C-2.40729228 5.32156597 -2.74438677 7.6568787 -3 10 C-2.01 10.33 -1.02 10.66 0 11 C0 8.36 0 5.72 0 3 C0.33 3 0.66 3 1 3 C1 6.96 1 10.92 1 15 C-3.56127128 17.28063564 -5.15822216 17.23245254 -10 16 C-12.5881216 13.74582958 -12.94242643 12.39479021 -13.4375 9 C-12.89328223 5.26822104 -11.97723373 4.25304174 -9 2 C-5.6011762 0.3005881 -3.89635934 0 0 0 Z " fill="#D07E64" transform="translate(190,289)"/>
<path d="M0 0 C3.34252724 -0.07427838 5.8035914 -0.06546953 9 1 C10.00926479 5.15626368 10.10239579 9.04365094 10.0625 13.3125 C10.05347656 14.56675781 10.04445312 15.82101562 10.03515625 17.11328125 C10.02355469 18.06589844 10.01195312 19.01851563 10 20 C9.67 19.34 9.34 18.68 9 18 C8.34 18 7.68 18 7 18 C7.66 19.65 8.32 21.3 9 23 C6.69 23 4.38 23 2 23 C2 16.73 2 10.46 2 4 C1.34 3.67 0.68 3.34 0 3 C0 2.01 0 1.02 0 0 Z " fill="#C75E35" transform="translate(204,281)"/>
<path d="M0 0 C0.33 0 0.66 0 1 0 C1 5.61 1 11.22 1 17 C2.32 17 3.64 17 5 17 C5 16.01 5 15.02 5 14 C6.98 13.67 8.96 13.34 11 13 C11.625 15.875 11.625 15.875 12 19 C11.34 19.66 10.68 20.32 10 21 C7.99548879 20.69496569 5.99551782 20.35919321 4 20 C2.66443427 20.32427316 1.33127061 20.65852167 0 21 C-1.58211573 21.06548492 -3.16670081 21.08578381 -4.75 21.0625 C-5.54921875 21.05347656 -6.3484375 21.04445313 -7.171875 21.03515625 C-7.77515625 21.02355469 -8.3784375 21.01195312 -9 21 C-9.33 19.68 -9.66 18.36 -10 17 C-9.34 17 -8.68 17 -8 17 C-8 11.72 -8 6.44 -8 1 C-7.67 1 -7.34 1 -7 1 C-7 5.95 -7 10.9 -7 16 C-6.01 16 -5.02 16 -4 16 C-4 15.34 -4 14.68 -4 14 C-3.34 14 -2.68 14 -2 14 C-0.64908472 11.29816945 -0.66141942 8.88191794 -0.4375 5.875 C-0.35371094 4.77929688 -0.26992188 3.68359375 -0.18359375 2.5546875 C-0.12300781 1.71164062 -0.06242187 0.86859375 0 0 Z " fill="#D58361" transform="translate(312,285)"/>
<path d="M0 0 C0.66 0 1.32 0 2 0 C2 0.66 2 1.32 2 2 C2.66 2 3.32 2 4 2 C4.33 2.99 4.66 3.98 5 5 C5.33 5.33 5.66 5.66 6 6 C6.36162029 7.32594105 6.69728039 8.65938457 7 10 C5.35 10.33 3.7 10.66 2 11 C1.67 12.65 1.34 14.3 1 16 C0.67 14.68 0.34 13.36 0 12 C-3.51005335 13.6380249 -6.45543849 15.03134491 -9 18 C-9.1546875 17.0409375 -9.1546875 17.0409375 -9.3125 16.0625 C-9.539375 15.381875 -9.76625 14.70125 -10 14 C-10.99 13.67 -11.98 13.34 -13 13 C-8.60055866 8.22346369 -8.60055866 8.22346369 -5.3125 7 C-2.74794415 6.18879406 -2.74794415 6.18879406 -1.75 3.4375 C-1.37875 2.2309375 -1.37875 2.2309375 -1 1 C-0.67 0.67 -0.34 0.34 0 0 Z " fill="#CB5F36" transform="translate(244,198)"/>
<path d="M0 0 C1.4540625 0.0309375 1.4540625 0.0309375 2.9375 0.0625 C3.2675 1.3825 3.5975 2.7025 3.9375 4.0625 C4.5975 4.0625 5.2575 4.0625 5.9375 4.0625 C5.99152274 6.16638569 6.03030256 8.27066714 6.0625 10.375 C6.08570313 11.54675781 6.10890625 12.71851563 6.1328125 13.92578125 C5.9375 17.0625 5.9375 17.0625 3.9375 20.0625 C3.2775 19.7325 2.6175 19.4025 1.9375 19.0625 C1.9375 19.7225 1.9375 20.3825 1.9375 21.0625 C0.9475 21.0625 -0.0425 21.0625 -1.0625 21.0625 C-1.13597656 19.52529297 -1.13597656 19.52529297 -1.2109375 17.95703125 C-1.28601071 16.5963294 -1.36155655 15.23565356 -1.4375 13.875 C-1.48390625 12.86469727 -1.48390625 12.86469727 -1.53125 11.83398438 C-1.76353922 7.86571025 -2.34637476 4.65520121 -4.0625 1.0625 C-3.0625 0.0625 -3.0625 0.0625 0 0 Z " fill="#C36137" transform="translate(306.0625,279.9375)"/>
<path d="M0 0 C1.64600021 0 3.29258261 -0.01061792 4.9375 -0.0703125 C5.618125 -0.08835937 6.29875 -0.10640625 7 -0.125 C8.0209375 -0.15980469 8.0209375 -0.15980469 9.0625 -0.1953125 C11 0 11 0 14 2 C14 3.32 14 4.64 14 6 C13.34 6 12.68 6 12 6 C11.67 4.68 11.34 3.36 11 2 C9.02 2.33 7.04 2.66 5 3 C5 3.99 5 4.98 5 6 C3.35 6.33 1.7 6.66 0 7 C0.11418667 9.58422459 0.24092362 12.16679513 0.375 14.75 C0.4059375 15.47960937 0.436875 16.20921875 0.46875 16.9609375 C0.6748494 20.73942656 0.91512843 23.77946668 3 27 C2 28 2 28 -0.43359375 28.1328125 C-1.92052734 28.12894531 -1.92052734 28.12894531 -3.4375 28.125 C-4.92056641 28.12886719 -4.92056641 28.12886719 -6.43359375 28.1328125 C-9 28 -9 28 -11 27 C-11 26.01 -11 25.02 -11 24 C-10.34 24 -9.68 24 -9 24 C-9 18.06 -9 12.12 -9 6 C-8.67 6 -8.34 6 -8 6 C-7.93941406 7.12019531 -7.87882812 8.24039062 -7.81640625 9.39453125 C-7.73198576 10.86719984 -7.64733851 12.33985544 -7.5625 13.8125 C-7.52318359 14.55048828 -7.48386719 15.28847656 -7.44335938 16.04882812 C-7.25618965 19.23071342 -7.01279207 21.96162378 -6 25 C-4.35 25 -2.7 25 -1 25 C-1 24.44014404 -1 23.88028809 -1 23.3034668 C-1 15.86897786 -1 8.43448893 -1 1 C-3.31 1.33 -5.62 1.66 -8 2 C-4.71805371 -0.1879642 -3.77524063 -0.18876203 0 0 Z " fill="#CE886F" transform="translate(298,278)"/>
<path d="M0 0 C-0.6875 2.4375 -0.6875 2.4375 -2 5 C-4.625 5.8125 -4.625 5.8125 -7 6 C-7.04125 6.66 -7.0825 7.32 -7.125 8 C-8.21480103 11.73646067 -10.13273021 14.10865682 -12.52734375 17.1328125 C-13.76155881 18.69767934 -14.8944761 20.34171415 -16 22 C-16.185625 20.824375 -16.185625 20.824375 -16.375 19.625 C-16.79117993 16.85942178 -16.79117993 16.85942178 -19 15 C-18.7588471 10.53867141 -17.15531977 8.08019311 -14 5 C-4.13112245 -1.37704082 -4.13112245 -1.37704082 0 0 Z " fill="#C65E38" transform="translate(264,222)"/>
<path d="M0 0 C0.33 0 0.66 0 1 0 C1 5.61 1 11.22 1 17 C2.32 17.33 3.64 17.66 5 18 C5.66 18.33 6.32 18.66 7 19 C6.67 13.06 6.34 7.12 6 1 C6.99 1.33 7.98 1.66 9 2 C9.02705308 4.41674224 9.04686438 6.8331794 9.0625 9.25 C9.07087891 9.93191406 9.07925781 10.61382812 9.08789062 11.31640625 C9.10428392 14.69342554 9.05628768 17.77291639 8 21 C10.31 21 12.62 21 15 21 C14.34 19.35 13.68 17.7 13 16 C13.66 16 14.32 16 15 16 C15 16.66 15 17.32 15 18 C16.32 18.66 17.64 19.32 19 20 C19 20.66 19 21.32 19 22 C15.31991613 22.90341409 12.3747246 22.97274465 8.625 22.5 C4.12721732 22.01440943 0.43292448 22.24545966 -4 23 C-4.66 22.67 -5.32 22.34 -6 22 C-6 20.35 -6 18.7 -6 17 C-5.34 17 -4.68 17 -4 17 C-4 18.32 -4 19.64 -4 21 C-2.35 20.67 -0.7 20.34 1 20 C0.01 19.34 -0.98 18.68 -2 18 C-1.34 12.06 -0.68 6.12 0 0 Z " fill="#D08E75" transform="translate(198,283)"/>
<path d="M0 0 C0.33 0 0.66 0 1 0 C1 9.9 1 19.8 1 30 C1.99 29.67 2.98 29.34 4 29 C4.33 29.33 4.66 29.66 5 30 C6.79275866 26.88089144 7.34290718 24.32317572 7.625 20.75 C7.69976562 19.85796875 7.77453125 18.9659375 7.8515625 18.046875 C7.90054688 17.37140625 7.94953125 16.6959375 8 16 C10.31 16 12.62 16 15 16 C15 16.33 15 16.66 15 17 C13.35 17 11.7 17 10 17 C10 20.96 10 24.92 10 29 C11.65 29.33 13.3 29.66 15 30 C15 30.99 15 31.98 15 33 C9.06 33 3.12 33 -3 33 C-3 32.01 -3 31.02 -3 30 C-2.34 29.67 -1.68 29.34 -1 29 C-0.67 19.43 -0.34 9.86 0 0 Z " fill="#E0A790" transform="translate(154,272)"/>
<path d="M0 0 C0.33 0 0.66 0 1 0 C1.02692484 2.29160319 1.04636124 4.58329546 1.0625 6.875 C1.07410156 8.15117187 1.08570313 9.42734375 1.09765625 10.7421875 C1 14 1 14 0 16 C0.66 16.33 1.32 16.66 2 17 C1.34 17 0.68 17 0 17 C0.33 18.65 0.66 20.3 1 22 C2.32 22.33 3.64 22.66 5 23 C2.6875 23.3125 2.6875 23.3125 0 23 C-1.9375 20.9375 -1.9375 20.9375 -3 18 C-2.1875 14.1875 -2.1875 14.1875 -1 11 C-4.2542015 13.83430453 -5.5206753 15.68607774 -6 20 C-6.33 20 -6.66 20 -7 20 C-7.33 17.36 -7.66 14.72 -8 12 C-9.32 12.33 -10.64 12.66 -12 13 C-11.12132824 9.4054337 -10.61749612 7.47124704 -7.625 5.1875 C-5 4 -5 4 -2.75 3.5 C-2.1725 3.335 -1.595 3.17 -1 3 C-0.67 2.01 -0.34 1.02 0 0 Z " fill="#D78868" transform="translate(264,227)"/>
<path d="M0 0 C8.91 0 17.82 0 27 0 C27 3.63 27 7.26 27 11 C26.01 11 25.02 11 24 11 C23.34 9.02 22.68 7.04 22 5 C19.03 5 16.06 5 13 5 C13.66 4.34 14.32 3.68 15 3 C11.37114676 2.84850702 11.37114676 2.84850702 8 4 C5.6670134 4.04022391 3.33293334 4.04320247 1 4 C0.67 2.68 0.34 1.36 0 0 Z " fill="#BE6C4D" transform="translate(151,268)"/>
<path d="M0 0 C1.32 0 2.64 0 4 0 C3.34 1.65 2.68 3.3 2 5 C1.67 4.34 1.34 3.68 1 3 C-3.455 3.495 -3.455 3.495 -8 4 C-7.67 10.93 -7.34 17.86 -7 25 C-5.02 25 -3.04 25 -1 25 C-1 20.38 -1 15.76 -1 11 C-0.67 11 -0.34 11 0 11 C0 15.29 0 19.58 0 24 C0.66 24 1.32 24 2 24 C1.67 25.32 1.34 26.64 1 28 C-2.63 28 -6.26 28 -10 28 C-10.33 26.68 -10.66 25.36 -11 24 C-10.34 24 -9.68 24 -9 24 C-9 18.06 -9 12.12 -9 6 C-9.66 6 -10.32 6 -11 6 C-11 4.68 -11 3.36 -11 2 C-7.15593457 0.56965007 -4.09750663 -0.21565824 0 0 Z " fill="#B66C51" transform="translate(244,278)"/>
<path d="M0 0 C3.63 0 7.26 0 11 0 C9.68 0.33 8.36 0.66 7 1 C7 1.66 7 2.32 7 3 C6.01 3.495 6.01 3.495 5 4 C4.53045739 7.04581269 4.53045739 7.04581269 4.375 10.5625 C4.26285156 12.35880859 4.26285156 12.35880859 4.1484375 14.19140625 C4.09945313 15.11824219 4.05046875 16.04507812 4 17 C1.69 17 -0.62 17 -3 17 C-3.40686063 10.7614703 -1.95127937 5.93514142 0 0 Z " fill="#5991A5" transform="translate(341,288)"/>
<path d="M0 0 C0.99 0.66 1.98 1.32 3 2 C6.5382677 2.22584687 9.60907078 2.04336284 13 1 C13.33 2.32 13.66 3.64 14 5 C9.45669159 8.70638318 7.0740833 10.38915877 1.04296875 10.3671875 C-2.33688596 9.75971839 -3.93334432 7.5833196 -6 5 C-5.01 5 -4.02 5 -3 5 C-3 5.66 -3 6.32 -3 7 C-2.01 7 -1.02 7 0 7 C0 4.69 0 2.38 0 0 Z " fill="#C77253" transform="translate(271,296)"/>
<path d="M0 0 C0.33 0 0.66 0 1 0 C1 3.63 1 7.26 1 11 C6.02137798 9.9957244 6.86243419 9.60239038 10 6 C11 7 11 7 11.09765625 9.94140625 C11.08605469 11.13636719 11.07445312 12.33132813 11.0625 13.5625 C11.05347656 14.76003906 11.04445312 15.95757812 11.03515625 17.19140625 C11.02355469 18.11824219 11.01195312 19.04507812 11 20 C9.0625 19.6875 9.0625 19.6875 7 19 C6.67 18.01 6.34 17.02 6 16 C5.030625 15.87625 4.06125 15.7525 3.0625 15.625 C2.051875 15.41875 1.04125 15.2125 0 15 C-1.37252731 12.25494537 -1.13229255 9.99672588 -1.125 6.9375 C-1.12757813 5.85339844 -1.13015625 4.76929688 -1.1328125 3.65234375 C-1 1 -1 1 0 0 Z " fill="#C17C63" transform="translate(163,273)"/>
<path d="M0 0 C1.8359375 1.52734375 1.8359375 1.52734375 3 3 C2.34 4.32 1.68 5.64 1 7 C0.67 5.35 0.34 3.7 0 2 C-1.32 2 -2.64 2 -4 2 C-4 4.97 -4 7.94 -4 11 C-4.33 11 -4.66 11 -5 11 C-5.33 9.02 -5.66 7.04 -6 5 C-6.99 5 -7.98 5 -9 5 C-9.33 6.32 -9.66 7.64 -10 9 C-11.65614657 9.38218767 -13.32457024 9.71395102 -15 10 C-16 9 -16 9 -16.375 6.6875 C-16 4 -16 4 -14.1875 1.6875 C-9.62216184 -0.72944373 -5.07552178 -0.87210978 0 0 Z " fill="#CE8467" transform="translate(195,278)"/>
<path d="M0 0 C0.99 0 1.98 0 3 0 C3.33 4.62 3.66 9.24 4 14 C4.66 14 5.32 14 6 14 C6.04254356 15.99954746 6.04080783 18.00041636 6 20 C5 21 5 21 2.4375 21.0625 C1.633125 21.041875 0.82875 21.02125 0 21 C-0.99440216 16.2710653 -0.96565891 11.90729882 -0.5625 7.125 C-0.51029297 6.43664062 -0.45808594 5.74828125 -0.40429688 5.0390625 C-0.27594902 3.35887242 -0.13887775 1.67935251 0 0 Z " fill="#C45C37" transform="translate(265,228)"/>
<path d="M0 0 C2.31 0.33 4.62 0.66 7 1 C8.12377697 4.30435084 7.89554742 6.0506862 6.5625 9.25 C6.27503906 9.95640625 5.98757812 10.6628125 5.69140625 11.390625 C5.46324219 11.92171875 5.23507813 12.4528125 5 13 C4.01 13 3.02 13 2 13 C2 17.95 2 22.9 2 28 C1.67 28 1.34 28 1 28 C0.98582031 26.97519531 0.97164062 25.95039063 0.95703125 24.89453125 C0.91010984 23.53381029 0.86186256 22.17313459 0.8125 20.8125 C0.80669922 20.13896484 0.80089844 19.46542969 0.79492188 18.77148438 C0.61805594 14.74287144 0.10193561 13.11941921 -2.55078125 10.01171875 C-3.35902344 9.34785156 -4.16726562 8.68398437 -5 8 C-4.0409375 7.690625 -4.0409375 7.690625 -3.0625 7.375 C-0.65074923 6.10461791 -0.65074923 6.10461791 -0.25 2.875 C-0.1675 1.92625 -0.085 0.9775 0 0 Z M2 2 C2 3.32 2 4.64 2 6 C3.32 6 4.64 6 6 6 C6.33 5.34 6.66 4.68 7 4 C6.67 3.34 6.34 2.68 6 2 C4.68 2 3.36 2 2 2 Z " fill="#D27E5D" transform="translate(227,211)"/>
<path d="M0 0 C3.125 -0.1875 3.125 -0.1875 6 0 C6.33 1.98 6.66 3.96 7 6 C3.7 6.33 0.4 6.66 -3 7 C-3.66 11.62 -4.32 16.24 -5 21 C-6.32 20.34 -7.64 19.68 -9 19 C-8.34 19 -7.68 19 -7 19 C-6.93941406 18.08476562 -6.87882813 17.16953125 -6.81640625 16.2265625 C-6.69072266 14.44378906 -6.69072266 14.44378906 -6.5625 12.625 C-6.48128906 11.44164062 -6.40007812 10.25828125 -6.31640625 9.0390625 C-6 6 -6 6 -5 4 C-5.66 3.67 -6.32 3.34 -7 3 C-6.21625 3.061875 -5.4325 3.12375 -4.625 3.1875 C-3.75875 3.125625 -2.8925 3.06375 -2 3 C-1.34 2.01 -0.68 1.02 0 0 Z M-9 21 C-8.34 21 -7.68 21 -7 21 C-7.33 21.66 -7.66 22.32 -8 23 C-8.33 22.34 -8.66 21.68 -9 21 Z " fill="#C2613F" transform="translate(248,278)"/>
<path d="M0 0 C1.01006939 3.38047418 1.19764268 6.54147056 1.25 10.0625 C1.28867188 11.62677734 1.28867188 11.62677734 1.328125 13.22265625 C1 16 1 16 -0.453125 17.87109375 C-2 19 -2 19 -3 19 C-3 15.04 -3 11.08 -3 7 C-2.34 7 -1.68 7 -1 7 C-1 6.34 -1 5.68 -1 5 C-4.02734375 4.31640625 -4.02734375 4.31640625 -7.0546875 3.6328125 C-9 3 -9 3 -11 1 C-6.87831311 -0.62950412 -4.29299643 -1.26264601 0 0 Z " fill="#C85B32" transform="translate(226,280)"/>
<path d="M0 0 C2.97 0.33 5.94 0.66 9 1 C9 1.99 9 2.98 9 4 C12.27773504 3.24849977 12.27773504 3.24849977 14 0 C16.625 -0.1875 16.625 -0.1875 19 0 C18.67 2.31 18.34 4.62 18 7 C17.34 7 16.68 7 16 7 C16 7.66 16 8.32 16 9 C13 11 13 11 10 11 C7.8480563 7.77208445 7.79913557 6.71599191 8 3 C7.236875 2.87625 6.47375 2.7525 5.6875 2.625 C3 2 3 2 0 0 Z " fill="#C97A5B" transform="translate(251,206)"/>
<path d="M0 0 C1.66666667 0 3.33333333 0 5 0 C4.88655624 2.1464753 4.75893655 4.29220592 4.625 6.4375 C4.55539062 7.63246094 4.48578125 8.82742187 4.4140625 10.05859375 C4.27742188 11.02925781 4.14078125 11.99992188 4 13 C3.01 13.495 3.01 13.495 2 14 C1.34786708 16.02463255 1.34786708 16.02463255 1 18 C-0.65 18 -2.3 18 -4 18 C-4.33 18.66 -4.66 19.32 -5 20 C-6.98 20 -8.96 20 -11 20 C-11 18.66666667 -11 17.33333333 -11 16 C-8.69 16 -6.38 16 -4 16 C-4 15.34 -4 14.68 -4 14 C-2.68 13.67 -1.36 13.34 0 13 C1.00392976 6.474566 1.00392976 6.474566 0 0 Z " fill="#C35E32" transform="translate(275,238)"/>
<path d="M0 0 C0 4.95 0 9.9 0 15 C-0.66 15 -1.32 15 -2 15 C-2.33 14.67 -2.66 14.34 -3 14 C-2.67 15.32 -2.34 16.64 -2 18 C-3.65 18 -5.3 18 -7 18 C-6.76534238 15.84314698 -6.52682954 13.68689266 -6.28125 11.53125 C-6.10085738 9.90771642 -5.93305255 8.28270589 -5.78125 6.65625 C-5.58914598 4.76265319 -5.3020146 2.87920197 -5 1 C-3 0 -3 0 0 0 Z " fill="#C75E33" transform="translate(257,286)"/>
<path d="M0 0 C0.33 0 0.66 0 1 0 C1.33 1.65 1.66 3.3 2 5 C2.99 4.01 3.98 3.02 5 2 C5 4.64 5 7.28 5 10 C6.65 10.33 8.3 10.66 10 11 C10.33 12.32 10.66 13.64 11 15 C7.37 15 3.74 15 0 15 C0 10.05 0 5.1 0 0 Z " fill="#BE5B36" transform="translate(229,224)"/>
<path d="M0 0 C0.33 0 0.66 0 1 0 C1 5.28 1 10.56 1 16 C0.01 16.33 -0.98 16.66 -2 17 C-2 17.66 -2 18.32 -2 19 C-3.32 19.33 -4.64 19.66 -6 20 C-6 18.35 -6 16.7 -6 15 C-7.98 14.34 -9.96 13.68 -12 13 C-12.04241723 10.66705225 -12.04092937 8.33297433 -12 6 C-11 5 -11 5 -7.9375 4.9375 C-6.4834375 4.9684375 -6.4834375 4.9684375 -5 5 C-4.34 7.97 -3.68 10.94 -3 14 C-2.34 14 -1.68 14 -1 14 C-0.67 9.38 -0.34 4.76 0 0 Z M-11 6 C-11 7.65 -11 9.3 -11 11 C-9.35 11 -7.7 11 -6 11 C-6 9.35 -6 7.7 -6 6 C-7.65 6 -9.3 6 -11 6 Z " fill="#D5876A" transform="translate(275,192)"/>
<path d="M0 0 C0.99 0.33 1.98 0.66 3 1 C3 2.65 3 4.3 3 6 C5.64 6 8.28 6 11 6 C11.33 4.68 11.66 3.36 12 2 C12.99 2 13.98 2 15 2 C15 4.31 15 6.62 15 9 C10.71 9 6.42 9 2 9 C2.66 11.64 3.32 14.28 4 17 C3.01 16.67 2.02 16.34 1 16 C0.67 10.72 0.34 5.44 0 0 Z " fill="#C3613B" transform="translate(268,282)"/>
<path d="M0 0 C0.99 0.33 1.98 0.66 3 1 C3 1.99 3 2.98 3 4 C7.25566547 5.16063604 10.6835078 4.76173392 15 4 C15.33 4.66 15.66 5.32 16 6 C13.525 5.505 13.525 5.505 11 5 C10.67 6.98 10.34 8.96 10 11 C9.401875 10.505 8.80375 10.01 8.1875 9.5 C6.02970006 7.71723582 6.02970006 7.71723582 3 8 C3 10.64 3 13.28 3 16 C0.54589642 12.31884463 0.76712157 10.34706402 1 6 C1.33 5.01 1.66 4.02 2 3 C1.01 3.66 0.02 4.32 -1 5 C-3.1875 4.625 -3.1875 4.625 -5 4 C-2.6875 1.9375 -2.6875 1.9375 0 0 Z " fill="#6296A6" transform="translate(330,283)"/>
<path d="M0 0 C1.64600021 0 3.29258261 -0.01061792 4.9375 -0.0703125 C5.618125 -0.08835937 6.29875 -0.10640625 7 -0.125 C8.0209375 -0.15980469 8.0209375 -0.15980469 9.0625 -0.1953125 C11 0 11 0 14 2 C13.67 2.66 13.34 3.32 13 4 C12.0925 3.62875 11.185 3.2575 10.25 2.875 C7.11902985 1.69640701 7.11902985 1.69640701 4.625 2.875 C4.08875 3.24625 3.5525 3.6175 3 4 C3.66 4.66 4.32 5.32 5 6 C4.38125 6.12375 3.7625 6.2475 3.125 6.375 C0.80879168 6.87197356 0.80879168 6.87197356 -1 9 C-1 7.35 -1 5.7 -1 4 C-1.99 4.33 -2.98 4.66 -4 5 C-4 4.34 -4 3.68 -4 3 C-5.98 3 -7.96 3 -10 3 C-10.33 3.99 -10.66 4.98 -11 6 C-11 4.68 -11 3.36 -11 2 C-7.1615152 0.57172659 -4.09435265 -0.22131636 0 0 Z " fill="#CD8164" transform="translate(214,278)"/>
<path d="M0 0 C0.5775 0.226875 1.155 0.45375 1.75 0.6875 C0.265 2.1725 0.265 2.1725 -1.25 3.6875 C-0.59 4.0175 0.07 4.3475 0.75 4.6875 C-0.91666667 4.6875 -2.58333333 4.6875 -4.25 4.6875 C-7.38250478 9.77782026 -7.88177779 13.87721577 -7.25 19.6875 C-6.36539972 23.10221924 -6.36539972 23.10221924 -5.25 25.6875 C-8.4134319 22.72816048 -10.02338372 20.84592724 -10.48828125 16.41796875 C-10.65765685 10.61462587 -10.23954872 7.23115271 -6.25 2.6875 C-3.03996865 -0.42221787 -3.03996865 -0.42221787 0 0 Z " fill="#CE856B" transform="translate(272.25,278.3125)"/>
<path d="M0 0 C0 0.99 0 1.98 0 3 C-0.5775 3.2475 -1.155 3.495 -1.75 3.75 C-4.10601158 4.90893522 -4.10601158 4.90893522 -5.875 7 C-8.41426965 9.38990085 -10.66911696 10.09157735 -14 11 C-13.67 9.68 -13.34 8.36 -13 7 C-11.35 7 -9.7 7 -8 7 C-8.33 6.01 -8.66 5.02 -9 4 C-11.31 4.33 -13.62 4.66 -16 5 C-12.15912446 0.02945518 -5.86103584 -0.28590419 0 0 Z " fill="#CD8871" transform="translate(291,206)"/>
<path d="M0 0 C0.33 0 0.66 0 1 0 C1.06058594 1.12019531 1.12117188 2.24039062 1.18359375 3.39453125 C1.26801424 4.86719984 1.35266149 6.33985544 1.4375 7.8125 C1.47681641 8.55048828 1.51613281 9.28847656 1.55664062 10.04882812 C1.74381035 13.23071342 1.98720793 15.96162378 3 19 C4.65 19 6.3 19 8 19 C8 17.35 8 15.7 8 14 C10.0625 16.3125 10.0625 16.3125 12 19 C11.67 19.99 11.34 20.98 11 22 C9.20841511 22.02696365 7.41671527 22.04637917 5.625 22.0625 C4.62726563 22.07410156 3.62953125 22.08570313 2.6015625 22.09765625 C0 22 0 22 -2 21 C-2 20.01 -2 19.02 -2 18 C-1.34 18 -0.68 18 0 18 C0 12.06 0 6.12 0 0 Z " fill="#D4997C" transform="translate(289,284)"/>
<path d="M0 0 C2.06723714 3.10085571 2.24497423 3.72931681 2.1953125 7.23046875 C2.18564453 8.43413086 2.18564453 8.43413086 2.17578125 9.66210938 C2.15902344 10.49548828 2.14226562 11.32886719 2.125 12.1875 C2.11597656 13.03248047 2.10695313 13.87746094 2.09765625 14.74804688 C2.07410703 16.83215243 2.03823647 18.91611217 2 21 C2.99 21.33 3.98 21.66 5 22 C5 22.66 5 23.32 5 24 C-1.435 24.495 -1.435 24.495 -8 25 C-8.33 23.68 -8.66 22.36 -9 21 C-8.34 21 -7.68 21 -7 21 C-7 21.66 -7 22.32 -7 23 C-5.68 22.67 -4.36 22.34 -3 22 C-3.33 21.01 -3.66 20.02 -4 19 C-3.67 18.34 -3.34 17.68 -3 17 C-2.34 17.33 -1.68 17.66 -1 18 C-1.33 18.66 -1.66 19.32 -2 20 C-1.01 20 -0.02 20 1 20 C0.67 13.4 0.34 6.8 0 0 Z " fill="#CE8C75" transform="translate(257,281)"/>
<path d="M0 0 C0 0.66 0 1.32 0 2 C-0.99 2.495 -0.99 2.495 -2 3 C-2.73075648 5.3140622 -3.40138258 7.64828869 -4 10 C-4.2475 9.360625 -4.495 8.72125 -4.75 8.0625 C-5.96621634 5.50980961 -5.96621634 5.50980961 -10 5 C-10.33 7.97 -10.66 10.94 -11 14 C-13 12 -13 12 -13.375 9.125 C-13 6 -13 6 -11.3125 3.75 C-7.46551112 0.83876517 -4.84148763 0 0 0 Z " fill="#D18267" transform="translate(190,289)"/>
<path d="M0 0 C0.66 0 1.32 0 2 0 C2.96661363 3.12180401 2.98988909 5.52083795 2.5625 8.75 C2.46066406 9.54921875 2.35882813 10.3484375 2.25390625 11.171875 C2.12822266 12.07679688 2.12822266 12.07679688 2 13 C0.35 13.33 -1.3 13.66 -3 14 C-3 10.04 -3 6.08 -3 2 C-2.01 2.495 -2.01 2.495 -1 3 C-0.67 2.01 -0.34 1.02 0 0 Z " fill="#33748D" transform="translate(352,290)"/>
<path d="M0 0 C0.66 0.33 1.32 0.66 2 1 C2.44921875 3.43359375 2.44921875 3.43359375 2.6875 6.4375 C2.77386719 7.42621094 2.86023438 8.41492188 2.94921875 9.43359375 C3 12 3 12 2 14 C1.34 14 0.68 14 0 14 C0 13.34 0 12.68 0 12 C-0.66 12 -1.32 12 -2 12 C-3.180933 8.457201 -3.27028374 5.71640139 -3 2 C-2.01 1.34 -1.02 0.68 0 0 Z " fill="#C65F39" transform="translate(255,238)"/>
<path d="M0 0 C0 0.99 0 1.98 0 3 C-4.62 3 -9.24 3 -14 3 C-13.79375 4.4025 -13.5875 5.805 -13.375 7.25 C-12.8390959 10.89414789 -13.0921416 12.8250906 -15 16 C-15.33 16 -15.66 16 -16 16 C-16.02685412 13.68756208 -16.04632841 11.3750373 -16.0625 9.0625 C-16.07410156 7.77472656 -16.08570313 6.48695313 -16.09765625 5.16015625 C-16 2 -16 2 -15 1 C-12.8589527 0.76404785 -10.71139964 0.58578114 -8.5625 0.4375 C-7.38816406 0.35371094 -6.21382812 0.26992187 -5.00390625 0.18359375 C-3.3379239 0.08177168 -1.66909105 0 0 0 Z " fill="#C97C5E" transform="translate(244,190)"/>
<path d="M0 0 C0.33 0 0.66 0 1 0 C1.33 5.61 1.66 11.22 2 17 C2.66 17.33 3.32 17.66 4 18 C4 18.99 4 19.98 4 21 C-2.435 21.495 -2.435 21.495 -9 22 C-9.33 20.68 -9.66 19.36 -10 18 C-9.34 18 -8.68 18 -8 18 C-8 18.66 -8 19.32 -8 20 C-4.45481116 18.60240095 -4.45481116 18.60240095 -1 17 C-0.67 11.39 -0.34 5.78 0 0 Z " fill="#CE947C" transform="translate(228,284)"/>
<path d="M0 0 C7.59 0 15.18 0 23 0 C23 3.63 23 7.26 23 11 C22.01 11 21.02 11 20 11 C19.34 9.02 18.68 7.04 18 5 C15.03 5 12.06 5 9 5 C9 4.67 9 4.34 9 4 C12.63 4 16.26 4 20 4 C20.33 4.66 20.66 5.32 21 6 C21.33 4.35 21.66 2.7 22 1 C14.74 1 7.48 1 0 1 C0 0.67 0 0.34 0 0 Z " fill="#D8A18D" transform="translate(155,268)"/>
<path d="M0 0 C2.24303873 2.88390694 4.12191978 5.8698663 6 9 C6.98244845 10.34631825 7.97676564 11.68441297 9 13 C5.79907334 13.31838702 4.31331341 13.1952605 1.54296875 11.46875 C0.76566406 10.8190625 -0.01164063 10.169375 -0.8125 9.5 C-1.99779297 8.52546875 -1.99779297 8.52546875 -3.20703125 7.53125 C-3.79871094 7.0259375 -4.39039063 6.520625 -5 6 C-3.68 5.67 -2.36 5.34 -1 5 C-0.67 3.35 -0.34 1.7 0 0 Z " fill="#D69F84" transform="translate(249,252)"/>
<path d="M0 0 C0.66 0.99 1.32 1.98 2 3 C4.55183404 4.20450304 4.55183404 4.20450304 7 5 C7 5.66 7 6.32 7 7 C7.66 7.33 8.32 7.66 9 8 C6.09399739 9.25664978 4.20395416 10 1 10 C0.67 12.64 0.34 15.28 0 18 C-0.66 17.67 -1.32 17.34 -2 17 C-1.67 14.36 -1.34 11.72 -1 9 C-0.34 9 0.32 9 1 9 C0.67 6.03 0.34 3.06 0 0 Z " fill="#D3866C" transform="translate(245,218)"/>
<path d="M0 0 C0.99 0.33 1.98 0.66 3 1 C2.3125 3.4375 2.3125 3.4375 1 6 C-1.625 6.8125 -1.625 6.8125 -4 7 C-4 7.66 -4 8.32 -4 9 C-5.32 9.33 -6.64 9.66 -8 10 C-8.66 9.01 -9.32 8.02 -10 7 C-7.19527484 3.70032335 -3.83081791 1.91540896 0 0 Z " fill="#C95C33" transform="translate(261,221)"/>
<path d="M0 0 C0.625 2.875 0.625 2.875 1 6 C0.34 6.66 -0.32 7.32 -1 8 C-3.625 7.625 -3.625 7.625 -6 7 C-7 4 -7 4 -6 1 C-4 0 -4 0 0 0 Z " fill="#548E9E" transform="translate(323,298)"/>
<path d="M0 0 C-0.639375 0.4125 -1.27875 0.825 -1.9375 1.25 C-4.20990931 3.17810487 -4.60196439 4.11424181 -5 7 C-6.65614657 7.38218767 -8.32457024 7.71395102 -10 8 C-11 7 -11 7 -11.0625 4.4375 C-11.041875 3.633125 -11.02125 2.82875 -11 2 C-3.57142857 -1.57142857 -3.57142857 -1.57142857 0 0 Z " fill="#C58565" transform="translate(190,280)"/>
<path d="M0 0 C0.33 0 0.66 0 1 0 C1 3.63 1 7.26 1 11 C2.98 10.67 4.96 10.34 7 10 C7 14 7 14 6 16 C3.0625 15.625 3.0625 15.625 0 15 C-1.37252731 12.25494537 -1.13229255 9.99672588 -1.125 6.9375 C-1.12757813 5.85339844 -1.13015625 4.76929688 -1.1328125 3.65234375 C-1 1 -1 1 0 0 Z " fill="#D28063" transform="translate(163,273)"/>
<path d="M0 0 C0.33 0 0.66 0 1 0 C1.02692484 2.29160319 1.04636124 4.58329546 1.0625 6.875 C1.07410156 8.15117187 1.08570313 9.42734375 1.09765625 10.7421875 C1 14 1 14 0 16 C0.66 16.33 1.32 16.66 2 17 C1.34 17 0.68 17 0 17 C0.33 18.65 0.66 20.3 1 22 C2.32 22.33 3.64 22.66 5 23 C2.6875 23.3125 2.6875 23.3125 0 23 C-1.9375 20.8125 -1.9375 20.8125 -3 18 C-2.39031953 16.31165408 -1.71162443 14.64797236 -1 13 C-0.88503591 10.71303572 -0.9361643 8.47100866 -1.02734375 6.18359375 C-0.99953808 3.96311225 -0.62141686 2.12437857 0 0 Z " fill="#DB9F8A" transform="translate(264,227)"/>
<path d="M0 0 C3.63 0 7.26 0 11 0 C9.68 0.33 8.36 0.66 7 1 C7 1.66 7 2.32 7 3 C5.35 2.67 3.7 2.34 2 2 C2.33 2.66 2.66 3.32 3 4 C3.039992 5.99960012 3.04346799 8.00047242 3 10 C1.35 9.67 -0.3 9.34 -2 9 C-1.34 6.03 -0.68 3.06 0 0 Z " fill="#34718A" transform="translate(341,288)"/>
<path d="M0 0 C1.65 0.33 3.3 0.66 5 1 C5.33 2.98 5.66 4.96 6 7 C5.01 6.67 4.02 6.34 3 6 C2.67 6.99 2.34 7.98 2 9 C1.01 9 0.02 9 -1 9 C-0.67 6.03 -0.34 3.06 0 0 Z " fill="#C65E32" transform="translate(180,294)"/>
<path d="M0 0 C0.33 0 0.66 0 1 0 C1.33 6.6 1.66 13.2 2 20 C1.34 20 0.68 20 0 20 C-1.98797178 14.16033289 -3.61045304 7.59874314 -0.984375 1.73046875 C-0.65953125 1.15941406 -0.3346875 0.58835938 0 0 Z " fill="#CB856D" transform="translate(242,236)"/>
<path d="M0 0 C0 0.66 0 1.32 0 2 C0.66 2.33 1.32 2.66 2 3 C-1.90028225 5.60018816 -5.47434569 5.15085514 -10 5 C-9.67 3.68 -9.34 2.36 -9 1 C-5.94152152 0.45627049 -3.11227195 0 0 0 Z " fill="#C66A47" transform="translate(297,279)"/>
<path d="M0 0 C3.7952131 1.49097658 5.61042731 3.75700849 8 7 C7.01 7.495 7.01 7.495 6 8 C6 7.34 6 6.68 6 6 C2.69432511 5.14612895 2.69432511 5.14612895 -1 5 C-3.33454661 6.83358335 -3.33454661 6.83358335 -5 9 C-5.66 9 -6.32 9 -7 9 C-7 8.34 -7 7.68 -7 7 C-6.34 7 -5.68 7 -5 7 C-5 6.34 -5 5.68 -5 5 C-4.34 5 -3.68 5 -3 5 C-2.690625 4.360625 -2.38125 3.72125 -2.0625 3.0625 C-1 1 -1 1 0 0 Z " fill="#CA846B" transform="translate(251,181)"/>
<path d="M0 0 C2.31 0.33 4.62 0.66 7 1 C7.33 2.32 7.66 3.64 8 5 C7.34 4.67 6.68 4.34 6 4 C6 3.34 6 2.68 6 2 C4.68 2.33 3.36 2.66 2 3 C2.2475 3.5775 2.495 4.155 2.75 4.75 C2.8325 5.4925 2.915 6.235 3 7 C1.0625 9.25 1.0625 9.25 -1 11 C-2.32 10.34 -3.64 9.68 -5 9 C-4.0409375 8.443125 -4.0409375 8.443125 -3.0625 7.875 C-0.36141928 5.41947207 -0.31592995 3.55421195 0 0 Z " fill="#D0876B" transform="translate(227,211)"/>
<path d="M0 0 C0.33 0 0.66 0 1 0 C1.33 2.97 1.66 5.94 2 9 C2.66 9 3.32 9 4 9 C4 9.66 4 10.32 4 11 C4.66 11 5.32 11 6 11 C6 12.32 6 13.64 6 15 C7.32 15.33 8.64 15.66 10 16 C10 16.66 10 17.32 10 18 C5.57673622 16.64844718 3.59587018 14.80109562 1 11 C-0.28317892 7.15046324 -0.06643637 4.05261865 0 0 Z " fill="#CE8D73" transform="translate(251,241)"/>
<path d="M0 0 C0.99 0.33 1.98 0.66 3 1 C3 1.66 3 2.32 3 3 C7.62 3 12.24 3 17 3 C13.1165669 5.91257483 11.69278171 6.58357904 6.97265625 6.43359375 C3.64320118 5.70177293 2.02759427 3.59785516 0 1 C0 0.67 0 0.34 0 0 Z " fill="#C9785E" transform="translate(265,300)"/>
<path d="M0 0 C1.98 0 3.96 0 6 0 C6.33 1.98 6.66 3.96 7 6 C5.35 6.33 3.7 6.66 2 7 C1.67 6.01 1.34 5.02 1 4 C0.34 4 -0.32 4 -1 4 C-0.67 2.68 -0.34 1.36 0 0 Z " fill="#C45E36" transform="translate(248,278)"/>
<path d="M0 0 C0.33 0 0.66 0 1 0 C1 5.61 1 11.22 1 17 C1.99 17 2.98 17 4 17 C3.67 18.32 3.34 19.64 3 21 C2.01 21 1.02 21 0 21 C-1.07875823 13.80827843 -0.7938642 7.21805755 0 0 Z " fill="#CE9C86" transform="translate(312,285)"/>
<path d="M0 0 C0.33 0 0.66 0 1 0 C1.33 3.96 1.66 7.92 2 12 C4.97 12 7.94 12 11 12 C11 12.99 11 13.98 11 15 C7.37 15 3.74 15 0 15 C0 10.05 0 5.1 0 0 Z " fill="#B46446" transform="translate(229,224)"/>
<path d="M0 0 C0 0.66 0 1.32 0 2 C-0.66 2 -1.32 2 -2 2 C-1.34 2.66 -0.68 3.32 0 4 C0.125 7.625 0.125 7.625 0 11 C-0.66 11 -1.32 11 -2 11 C-2.33 9.68 -2.66 8.36 -3 7 C-4.65 6.67 -6.3 6.34 -8 6 C-8 5.34 -8 4.68 -8 4 C-7.01 4 -6.02 4 -5 4 C-4.67 3.01 -4.34 2.02 -4 1 C-2 0 -2 0 0 0 Z " fill="#D28262" transform="translate(259,192)"/>
<path d="M0 0 C1.65 0.33 3.3 0.66 5 1 C5 1.99 5 2.98 5 4 C-0.94 4 -6.88 4 -13 4 C-13 3.01 -13 2.02 -13 1 C-12.01 1 -11.02 1 -10 1 C-10 1.66 -10 2.32 -10 3 C-6.7 3 -3.4 3 0 3 C0 2.01 0 1.02 0 0 Z " fill="#B36C55" transform="translate(164,301)"/>
<path d="M0 0 C1.25541557 3.76624671 0.37061958 5.37188934 -1 9 C0.32 8.67 1.64 8.34 3 8 C1.87548273 10.9719385 0.77706209 13.33440687 -1 16 C-1.12375 15.21625 -1.2475 14.4325 -1.375 13.625 C-1.79117993 10.85942178 -1.79117993 10.85942178 -4 9 C-3.69670231 5.15822926 -2.47524576 2.90572328 0 0 Z " fill="#D27E63" transform="translate(249,228)"/>
<path d="M0 0 C1.65 0 3.3 0 5 0 C3.68 0.33 2.36 0.66 1 1 C1 2.98 1 4.96 1 7 C2.65 7 4.3 7 6 7 C6 5.02 6 3.04 6 1 C6.33 1 6.66 1 7 1 C7 2.98 7 4.96 7 7 C7.66 7.33 8.32 7.66 9 8 C8.01 9.32 7.02 10.64 6 12 C5.566875 11.525625 5.13375 11.05125 4.6875 10.5625 C2.97690387 8.76313043 2.97690387 8.76313043 0 8 C0 5.36 0 2.72 0 0 Z " fill="#D59687" transform="translate(234,226)"/>
<path d="M0 0 C0 2.31 0 4.62 0 7 C-0.99 6.67 -1.98 6.34 -3 6 C-3.33 6.66 -3.66 7.32 -4 8 C-4.66 8 -5.32 8 -6 8 C-6 7.34 -6 6.68 -6 6 C-6.66 5.67 -7.32 5.34 -8 5 C-6.68 4.34 -5.36 3.68 -4 3 C-4 2.34 -4 1.68 -4 1 C-2 0 -2 0 0 0 Z " fill="#C46948" transform="translate(263,230)"/>
<path d="M0 0 C0.33 0 0.66 0 1 0 C1 2.97 1 5.94 1 9 C1.66 9 2.32 9 3 9 C3 9.99 3 10.98 3 12 C-0.3 12 -3.6 12 -7 12 C-7 11.01 -7 10.02 -7 9 C-5.02 9 -3.04 9 -1 9 C-0.67 6.03 -0.34 3.06 0 0 Z " fill="#7CA3B3" transform="translate(354,294)"/>
<path d="M0 0 C0.33 0.99 0.66 1.98 1 3 C-3.75 7 -3.75 7 -6 7 C-5.67 8.98 -5.34 10.96 -5 13 C-6.32 12.01 -7.64 11.02 -9 10 C-7.71480435 7.13302508 -6.42870746 5.02392288 -4 3 C-3.34 3 -2.68 3 -2 3 C-2 2.34 -2 1.68 -2 1 C-1.34 0.67 -0.68 0.34 0 0 Z " fill="#CC9076" transform="translate(227,206)"/>
<path d="M0 0 C0 0.99 0 1.98 0 3 C-3.3 3 -6.6 3 -10 3 C-9.67 2.01 -9.34 1.02 -9 0 C-5.93109813 -1.53445094 -3.29905734 -0.54984289 0 0 Z " fill="#C86A4C" transform="translate(281,279)"/>
<path d="M0 0 C0.33 0 0.66 0 1 0 C1.04254356 1.99954746 1.04080783 4.00041636 1 6 C0 7 0 7 -2.5625 7.0625 C-3.7690625 7.0315625 -3.7690625 7.0315625 -5 7 C-5.33 5.35 -5.66 3.7 -6 2 C-4.7934375 1.7834375 -4.7934375 1.7834375 -3.5625 1.5625 C-1.07896294 1.25864751 -1.07896294 1.25864751 0 0 Z " fill="#C06642" transform="translate(270,242)"/>
<path d="M0 0 C2.5 1.8125 2.5 1.8125 5 4 C5 4.99 5 5.98 5 7 C4.34 7 3.68 7 3 7 C2.67 7.66 2.34 8.32 2 9 C1.01 8.67 0.02 8.34 -1 8 C-1.125 2.25 -1.125 2.25 0 0 Z " fill="#CB724E" transform="translate(258,248)"/>
<path d="M0 0 C1.98 0.99 1.98 0.99 4 2 C4 2.66 4 3.32 4 4 C4.17111251 7.02685532 4.17111251 7.02685532 5 10 C6.95163118 11.43637698 6.95163118 11.43637698 9 12 C7.02 12 5.04 12 3 12 C2.855625 11.38125 2.71125 10.7625 2.5625 10.125 C2.06847775 7.96741678 2.06847775 7.96741678 1 6 C0.67 6 0.34 6 0 6 C0 4.02 0 2.04 0 0 Z " fill="#C0603B" transform="translate(230,193)"/>
<path d="M0 0 C1.75 1.4375 1.75 1.4375 3 3 C2.0409375 3.1546875 2.0409375 3.1546875 1.0625 3.3125 C0.381875 3.539375 -0.29875 3.76625 -1 4 C-1.33 4.99 -1.66 5.98 -2 7 C-4.0625 7.6875 -4.0625 7.6875 -6 8 C-6.33 7.01 -6.66 6.02 -7 5 C-6.34 5 -5.68 5 -5 5 C-4.67 3.68 -4.34 2.36 -4 1 C-2.1875 0.3125 -2.1875 0.3125 0 0 Z " fill="#C55C34" transform="translate(272,214)"/>
<path d="M0 0 C0.99 0 1.98 0 3 0 C3 3.3 3 6.6 3 10 C2.01 10.33 1.02 10.66 0 11 C0 7.37 0 3.74 0 0 Z " fill="#CA6544" transform="translate(265,228)"/>
<path d="M0 0 C0.33 0 0.66 0 1 0 C1 4.29 1 8.58 1 13 C1.66 13 2.32 13 3 13 C2.67 14.32 2.34 15.64 2 17 C0.35 16.67 -1.3 16.34 -3 16 C-2.01 15.34 -1.02 14.68 0 14 C0.36558117 10.64496524 0.36558117 10.64496524 0.1875 6.875 C0.16042969 5.59367187 0.13335937 4.31234375 0.10546875 2.9921875 C0.05326172 1.51105469 0.05326172 1.51105469 0 0 Z " fill="#DBA38A" transform="translate(243,289)"/>
<path d="M0 0 C1.32 0 2.64 0 4 0 C3.34 1.65 2.68 3.3 2 5 C1.67 4.34 1.34 3.68 1 3 C0.2575 3.226875 -0.485 3.45375 -1.25 3.6875 C-4 4 -4 4 -6.3125 2.5625 C-6.869375 2.046875 -7.42625 1.53125 -8 1 C-5.02161338 0.00720446 -3.09716622 -0.07554064 0 0 Z " fill="#D08B6C" transform="translate(244,278)"/>
<path d="M0 0 C0.66 0.33 1.32 0.66 2 1 C1.67 1.99 1.34 2.98 1 4 C0.01 4 -0.98 4 -2 4 C-1.67 4.99 -1.34 5.98 -1 7 C-2.65 7.33 -4.3 7.66 -6 8 C-6 7.01 -6 6.02 -6 5 C-5.34 5 -4.68 5 -4 5 C-3.896875 4.360625 -3.79375 3.72125 -3.6875 3.0625 C-3.460625 2.381875 -3.23375 1.70125 -3 1 C-2.01 0.67 -1.02 0.34 0 0 Z " fill="#C25C3C" transform="translate(256,199)"/>
<path d="M0 0 C1.09570312 0.00902344 2.19140625 0.01804688 3.3203125 0.02734375 C4.16335938 0.03894531 5.00640625 0.05054688 5.875 0.0625 C5.215 0.7225 4.555 1.3825 3.875 2.0625 C1.14630593 2.02962417 -1.4216618 1.49852229 -4.125 1.0625 C-4.455 3.0425 -4.785 5.0225 -5.125 7.0625 C-6.625 5.75 -6.625 5.75 -8.125 4.0625 C-8.125 3.0725 -8.125 2.0825 -8.125 1.0625 C-5.36047967 -0.31976016 -3.0788637 -0.03275387 0 0 Z " fill="#CA5A2F" transform="translate(265.125,192.9375)"/>
<path d="M0 0 C0.66 0 1.32 0 2 0 C2 0.66 2 1.32 2 2 C3.32 2.66 4.64 3.32 6 4 C6 4.66 6 5.32 6 6 C2.30458414 6.95024979 -0.30458414 6.95024979 -4 6 C-4 5.67 -4 5.34 -4 5 C-2.02 5 -0.04 5 2 5 C1.34 3.35 0.68 1.7 0 0 Z " fill="#C7815F" transform="translate(211,299)"/>
<path d="M0 0 C0 0.66 0 1.32 0 2 C-0.99 2.495 -0.99 2.495 -2 3 C-2.68729254 5.11846285 -2.68729254 5.11846285 -3.125 7.5625 C-3.29257813 8.38878906 -3.46015625 9.21507812 -3.6328125 10.06640625 C-3.75398437 10.70449219 -3.87515625 11.34257812 -4 12 C-6 10 -6 10 -6.375 7.125 C-6 4 -6 4 -4.125 1.625 C-2 0 -2 0 0 0 Z " fill="#CB876F" transform="translate(183,291)"/>
<path d="M0 0 C-0.33 2.64 -0.66 5.28 -1 8 C-1.99 7.34 -2.98 6.68 -4 6 C-3.67 5.34 -3.34 4.68 -3 4 C-4.32 4 -5.64 4 -7 4 C-7 3.34 -7 2.68 -7 2 C-2.25 0 -2.25 0 0 0 Z " fill="#29728F" transform="translate(332,286)"/>
<path d="M0 0 C1.65 0 3.3 0 5 0 C5 0.66 5 1.32 5 2 C3.35 2.33 1.7 2.66 0 3 C0 7.29 0 11.58 0 16 C-0.33 16 -0.66 16 -1 16 C-1.02692484 13.70839681 -1.04636124 11.41670454 -1.0625 9.125 C-1.07410156 7.84882813 -1.08570313 6.57265625 -1.09765625 5.2578125 C-1 2 -1 2 0 0 Z " fill="#C97E61" transform="translate(298,282)"/>
<path d="M0 0 C2.97 0 5.94 0 9 0 C8.67 0.66 8.34 1.32 8 2 C6.68 2 5.36 2 4 2 C3.67 3.65 3.34 5.3 3 7 C1.79371992 4.66785852 0.8345262 2.50357861 0 0 Z " fill="#D38E73" transform="translate(242,207)"/>
<path d="M0 0 C0.99 0.66 1.98 1.32 3 2 C2.67 2.66 2.34 3.32 2 4 C1.13375 3.649375 0.2675 3.29875 -0.625 2.9375 C-4.24825242 1.931041 -6.3853322 2.13936481 -10 3 C-10 2.34 -10 1.68 -10 1 C-6.87293041 -0.5635348 -3.42017557 -0.39958487 0 0 Z " fill="#CD8A72" transform="translate(225,278)"/>
<path d="M0 0 C0.99 0.33 1.98 0.66 3 1 C3 1.99 3 2.98 3 4 C1.68 4 0.36 4 -1 4 C-1.33 4.66 -1.66 5.32 -2 6 C-2.99 6 -3.98 6 -5 6 C-3.63016497 2.83884224 -3.0109362 2.0072908 0 0 Z " fill="#C45D34" transform="translate(280,209)"/>
<path d="M0 0 C0 2.31 0 4.62 0 7 C-2.31 6.67 -4.62 6.34 -7 6 C-6.01 5.34 -5.02 4.68 -4 4 C-3.67 3.01 -3.34 2.02 -3 1 C-1 0 -1 0 0 0 Z " fill="#C25B35" transform="translate(173,281)"/>
<path d="M0 0 C2.97 0 5.94 0 9 0 C9 1.32 9 2.64 9 4 C8.21625 3.95875 7.4325 3.9175 6.625 3.875 C3.83883881 3.71271266 3.83883881 3.71271266 2 6 C2 4.35 2 2.7 2 1 C1.34 0.67 0.68 0.34 0 0 Z " fill="#CC7252" transform="translate(241,281)"/>
<path d="M0 0 C0.33 0.99 0.66 1.98 1 3 C0.67 3.66 0.34 4.32 0 5 C2.31 5 4.62 5 7 5 C7.33 4.34 7.66 3.68 8 3 C8 3.99 8 4.98 8 6 C6.5629191 6.05422947 5.12524538 6.09289723 3.6875 6.125 C2.88699219 6.14820313 2.08648437 6.17140625 1.26171875 6.1953125 C-1 6 -1 6 -4 4 C-2.68 2.68 -1.36 1.36 0 0 Z " fill="#7DABBD" transform="translate(338,300)"/>
<path d="M0 0 C0.33 0.66 0.66 1.32 1 2 C-0.65 1.67 -2.3 1.34 -4 1 C-4.33 2.98 -4.66 4.96 -5 7 C-6.32 5.35 -7.64 3.7 -9 2 C-5.86501708 0.14223235 -3.62528568 -0.20140476 0 0 Z " fill="#78A5B6" transform="translate(345,287)"/>
<path d="M0 0 C0.66 0 1.32 0 2 0 C3.01018369 4.34378986 3.25218057 7.058684 1 11 C0.01 11.33 -0.98 11.66 -2 12 C-2 11.34 -2 10.68 -2 10 C-1.34 10 -0.68 10 0 10 C0 6.7 0 3.4 0 0 Z " fill="#D19075" transform="translate(274,240)"/>
<path d="M0 0 C2 2 2 2 2.125 5.125 C2.08375 6.07375 2.0425 7.0225 2 8 C1.01 8 0.02 8 -1 8 C-1.33 8.99 -1.66 9.98 -2 11 C-2.33 9.68 -2.66 8.36 -3 7 C-2.34 7 -1.68 7 -1 7 C-0.67 4.69 -0.34 2.38 0 0 Z " fill="#C96946" transform="translate(243,214)"/>
<path d="M0 0 C0 0.99 0 1.98 0 3 C-4.95 2.67 -9.9 2.34 -15 2 C-15 1.67 -15 1.34 -15 1 C-12.8750734 0.83240016 -10.75005624 0.66594799 -8.625 0.5 C-7.44164062 0.4071875 -6.25828125 0.314375 -5.0390625 0.21875 C-3.36213157 0.09804546 -1.68126944 0 0 0 Z " fill="#C78D78" transform="translate(244,190)"/>
<path d="M0 0 C2.97 0.495 2.97 0.495 6 1 C5.67 1.99 5.34 2.98 5 4 C3.68 4 2.36 4 1 4 C1.33 4.99 1.66 5.98 2 7 C1.01 7 0.02 7 -1 7 C-0.67 4.69 -0.34 2.38 0 0 Z " fill="#D28E73" transform="translate(249,189)"/>
<path d="M0 0 C0.99 0.33 1.98 0.66 3 1 C1.8125 3.5 1.8125 3.5 0 6 C-2.6875 6.3125 -2.6875 6.3125 -5 6 C-5 5.34 -5 4.68 -5 4 C-4.01 3.67 -3.02 3.34 -2 3 C-1.34 2.01 -0.68 1.02 0 0 Z " fill="#55A0B3" transform="translate(334,300)"/>
<path d="M0 0 C-2.31 1.65 -4.62 3.3 -7 5 C-7.66 3.68 -8.32 2.36 -9 1 C-5.19495213 -0.79682816 -4.29399165 -1.07349791 0 0 Z " fill="#C35D37" transform="translate(190,280)"/>
<path d="M0 0 C0.33 0.66 0.66 1.32 1 2 C-0.175625 2.1546875 -0.175625 2.1546875 -1.375 2.3125 C-4.33045181 2.77595022 -4.33045181 2.77595022 -6 6 C-6.99 6 -7.98 6 -9 6 C-9 5.01 -9 4.02 -9 3 C-8.34 3 -7.68 3 -7 3 C-7 2.34 -7 1.68 -7 1 C-3.535 0.505 -3.535 0.505 0 0 Z " fill="#D98463" transform="translate(270,252)"/>
<path d="M0 0 C3.16115776 1.36983503 3.9927092 1.9890638 6 5 C4.35 5 2.7 5 1 5 C0.34 3.68 -0.32 2.36 -1 1 C-0.67 0.67 -0.34 0.34 0 0 Z " fill="#C8907D" transform="translate(252,260)"/>
<path d="M0 0 C0.99 0 1.98 0 3 0 C2.67 1.65 2.34 3.3 2 5 C2.99 5.33 3.98 5.66 5 6 C3.02 6 1.04 6 -1 6 C-0.67 4.02 -0.34 2.04 0 0 Z " fill="#2A728C" transform="translate(339,299)"/>
<path d="M0 0 C0.103125 0.598125 0.20625 1.19625 0.3125 1.8125 C1.08876455 4.28243264 2.07088921 5.32251235 4 7 C2.02 7.33 0.04 7.66 -2 8 C-2.33 6.68 -2.66 5.36 -3 4 C-2.34 3.67 -1.68 3.34 -1 3 C-0.67 2.01 -0.34 1.02 0 0 Z " fill="#C07557" transform="translate(236,298)"/>
<path d="M0 0 C0.66 0 1.32 0 2 0 C2 0.66 2 1.32 2 2 C3.32 1.67 4.64 1.34 6 1 C5.67 2.32 5.34 3.64 5 5 C3.68 5.33 2.36 5.66 1 6 C0.67 4.02 0.34 2.04 0 0 Z " fill="#BE5B3A" transform="translate(221,213)"/>
<path d="M0 0 C5.75 -0.125 5.75 -0.125 8 1 C8 1.66 8 2.32 8 3 C5.69 3 3.38 3 1 3 C0.67 2.01 0.34 1.02 0 0 Z " fill="#C95D32" transform="translate(231,234)"/>
<path d="M0 0 C2.73922932 0 3.14336348 0.04778783 6 1 C4 4 4 4 1.875 4.6875 C1.25625 4.790625 0.6375 4.89375 0 5 C-0.33 4.34 -0.66 3.68 -1 3 C-0.67 2.01 -0.34 1.02 0 0 Z " fill="#38819C" transform="translate(328,300)"/>
<path d="M0 0 C0.99 0.33 1.98 0.66 3 1 C2.01 1.66 1.02 2.32 0 3 C0 3.99 0 4.98 0 6 C-1.98 6.99 -1.98 6.99 -4 8 C-2.25 2.25 -2.25 2.25 0 0 Z " fill="#E39A7D" transform="translate(256,232)"/>
<path d="M0 0 C0.99 0 1.98 0 3 0 C3.1875 2.375 3.1875 2.375 3 5 C2.01 5.66 1.02 6.32 0 7 C0 4.69 0 2.38 0 0 Z " fill="#CD5E34" transform="translate(273,223)"/>
<path d="M0 0 C2.475 0.495 2.475 0.495 5 1 C5 1.99 5 2.98 5 4 C3.35 4 1.7 4 0 4 C0 2.68 0 1.36 0 0 Z " fill="#C38168" transform="translate(164,301)"/>
<path d="M0 0 C0.66 0.66 1.32 1.32 2 2 C1.67 2.66 1.34 3.32 1 4 C-0.98 4 -2.96 4 -5 4 C-5.33 3.34 -5.66 2.68 -6 2 C-4.02 1.34 -2.04 0.68 0 0 Z " fill="#CF5937" transform="translate(296,282)"/>
<path d="M0 0 C0.33 1.32 0.66 2.64 1 4 C-0.98 4 -2.96 4 -5 4 C-4.67 3.01 -4.34 2.02 -4 1 C-2 0 -2 0 0 0 Z " fill="#BE5E38" transform="translate(276,278)"/>
<path d="M0 0 C1.66666667 0 3.33333333 0 5 0 C4.67 1.98 4.34 3.96 4 6 C3.01 5.67 2.02 5.34 1 5 C0.67 3.35 0.34 1.7 0 0 Z " fill="#C8663E" transform="translate(275,238)"/>
<path d="M0 0 C0.33 0 0.66 0 1 0 C1 1.98 1 3.96 1 6 C1.66 6.33 2.32 6.66 3 7 C2.01 8.32 1.02 9.64 0 11 C-1.37432457 7.18243176 -0.67975039 3.92744671 0 0 Z " fill="#D79073" transform="translate(240,227)"/>
<path d="M0 0 C0 0.99 0 1.98 0 3 C-0.99 3.33 -1.98 3.66 -3 4 C-3 3.34 -3 2.68 -3 2 C-4.98 2 -6.96 2 -9 2 C-5.5647952 -0.29013653 -4.014669 -0.17842973 0 0 Z " fill="#C39C92" transform="translate(291,206)"/>
<path d="M0 0 C1.65 0 3.3 0 5 0 C4.67 1.32 4.34 2.64 4 4 C2.68 3.67 1.36 3.34 0 3 C0 2.01 0 1.02 0 0 Z " fill="#D06C45" transform="translate(265,206)"/>
<path d="M0 0 C0.99 0.33 1.98 0.66 3 1 C3 3.31 3 5.62 3 8 C2.34 8 1.68 8 1 8 C0.855625 7.38125 0.71125 6.7625 0.5625 6.125 C0.06847775 3.96741678 0.06847775 3.96741678 -1 2 C-0.67 1.34 -0.34 0.68 0 0 Z " fill="#D7734F" transform="translate(256,195)"/>
<path d="M0 0 C0 1.98 0 3.96 0 6 C-0.99 5.34 -1.98 4.68 -3 4 C-3 3.34 -3 2.68 -3 2 C-3.66 1.67 -4.32 1.34 -5 1 C-3 0 -3 0 0 0 Z " fill="#CA613C" transform="translate(274,193)"/>
</svg>